<?xml version="1.0" encoding="UTF-8" standalone="no"?><!DOCTYPE svg PUBLIC "-//W3C//DTD SVG 1.1//EN" "http://www.w3.org/Graphics/SVG/1.1/DTD/svg11.dtd"><svg width="100%" height="100%" viewBox="0 0 210 216" version="1.1" xmlns="http://www.w3.org/2000/svg" xmlns:xlink="http://www.w3.org/1999/xlink" xml:space="preserve" xmlns:serif="http://www.serif.com/" style="fill-rule:evenodd;clip-rule:evenodd;stroke-linecap:round;stroke-linejoin:round;stroke-miterlimit:1.5;"><g><g><path d="M28.477,166.362l76.498,-44.156l76.498,43.979" style="fill:none;stroke:#000;stroke-width:9.95px;"/><g><path d="M104.975,4.975l-0,29.272" style="fill:none;stroke:#000;stroke-width:9.95px;"/><path d="M104.975,4.975l9.488,8.212" style="fill:none;stroke:#000;stroke-width:9.95px;"/><path d="M104.975,4.975l-9.488,8.212" style="fill:none;stroke:#000;stroke-width:9.95px;"/></g><g><path d="M204.975,182.032l-24.724,-15.67" style="fill:none;stroke:#000;stroke-width:9.95px;"/><path d="M204.975,182.032l-12.015,3.618" style="fill:none;stroke:#000;stroke-width:9.95px;"/><path d="M204.975,182.032l-1.857,-12.41" style="fill:none;stroke:#000;stroke-width:9.95px;"/></g><g><path d="M4.975,182.032l24.724,-15.67" style="fill:none;stroke:#000;stroke-width:9.95px;"/><path d="M4.975,182.032l12.015,3.618" style="fill:none;stroke:#000;stroke-width:9.95px;"/><path d="M4.975,182.032l1.857,-12.41" style="fill:none;stroke:#000;stroke-width:9.95px;"/></g><path d="M104.975,122.206l0,-86.352" style="fill:none;stroke:#000;stroke-width:9.95px;"/><path d="M104.975,210.165l-75.885,-43.914l-0.613,-87.96l76.498,-44.044l76.498,44.044l0,87.96l-76.498,43.914Z" style="fill:none;stroke:#fff;stroke-width:9.95px;"/><path d="M104.975,122.206l0,87.959" style="fill:none;stroke:#fff;stroke-width:9.95px;"/><path d="M28.477,78.403l76.498,43.804l76.498,-43.915" style="fill:none;stroke:#fff;stroke-width:9.95px;"/></g></g></svg>